<?xml version="1.0" encoding="utf-8"?>
<!-- Generator: Adobe Illustrator 17.1.0, SVG Export Plug-In . SVG Version: 6.00 Build 0)  -->
<!DOCTYPE svg PUBLIC "-//W3C//DTD SVG 1.1//EN" "http://www.w3.org/Graphics/SVG/1.1/DTD/svg11.dtd">
<svg version="1.1" id="ICON" xmlns="http://www.w3.org/2000/svg" xmlns:xlink="http://www.w3.org/1999/xlink" x="0px" y="0px"
	 viewBox="0 0 360 360" enable-background="new 0 0 360 360" xml:space="preserve">
<g>
	<polygon points="178.2,41.8 41.6,180.1 51,189.2 178.2,60.4 305.7,189.2 315.2,180.1 	"/>
	<polygon points="64.8,194.4 61.3,194.4 61.3,197.9 61.3,217.8 61.3,221.3 64.8,221.3 106.4,221.3 109.9,221.3 109.9,217.8 
		109.9,197.9 109.9,194.4 106.4,194.4 	"/>
	<polygon points="291.5,221.3 295.4,221.3 295.4,217.8 295.4,197.9 295.4,194.4 291.5,194.4 250.3,194.4 246.4,194.4 246.4,197.9 
		246.4,217.8 246.4,221.3 250.3,221.3 	"/>
	<polygon points="64.8,225.6 61.3,225.6 61.3,229.5 61.3,249 61.3,252.9 64.8,252.9 106.4,252.9 109.9,252.9 109.9,249 109.9,229.5 
		109.9,225.6 106.4,225.6 	"/>
	<polygon points="64.8,257.3 61.3,257.3 61.3,260.8 61.3,280.3 61.3,284.2 64.8,284.2 106.4,284.2 109.9,284.2 109.9,280.3 
		109.9,260.8 109.9,257.3 106.4,257.3 	"/>
	<polygon points="64.8,288.5 61.3,288.5 61.3,292 61.3,311.9 61.3,315.4 64.8,315.4 106.4,315.4 109.9,315.4 109.9,311.9 109.9,292 
		109.9,288.5 106.4,288.5 	"/>
	<polygon points="188.9,194.4 185,194.4 185,197.9 185,217.4 185,221.3 188.9,221.3 230.1,221.3 234,221.3 234,217.4 234,197.9 
		234,194.4 230.1,194.4 	"/>
	<polygon points="188.9,162.8 185,162.8 185,166.7 185,186.2 185,190.1 188.9,190.1 230.1,190.1 234,190.1 234,186.2 234,166.7 
		234,162.8 230.1,162.8 	"/>
	<polygon points="188.9,225.6 185,225.6 185,229.5 185,249 185,252.5 188.9,252.5 230.1,252.5 234,252.5 234,249 234,229.5 
		234,225.6 230.1,225.6 	"/>
	<polygon points="188.9,257.3 185,257.3 185,260.8 185,280.3 185,284.2 188.9,284.2 230.1,284.2 234,284.2 234,280.3 234,260.8 
		234,257.3 230.1,257.3 	"/>
	<polygon points="188.9,288.5 185,288.5 185,292 185,311.9 185,315.4 188.9,315.4 230.1,315.4 234,315.4 234,311.9 234,292 
		234,288.5 230.1,288.5 	"/>
	<polygon points="126.6,225.6 122.7,225.6 122.7,229.5 122.7,249 122.7,252.9 126.6,252.9 168.3,252.9 171.7,252.9 171.7,249 
		171.7,229.5 171.7,225.6 168.3,225.6 	"/>
	<polygon points="126.6,257.3 122.7,257.3 122.7,260.8 122.7,280.3 122.7,284.2 126.6,284.2 168.3,284.2 171.7,284.2 171.7,280.3 
		171.7,260.8 171.7,257.3 168.3,257.3 	"/>
	<polygon points="126.6,288.5 122.7,288.5 122.7,292 122.7,311.9 122.7,315.4 126.6,315.4 168.3,315.4 171.7,315.4 171.7,311.9 
		171.7,292 171.7,288.5 168.3,288.5 	"/>
	<polygon points="250.3,225.6 246.4,225.6 246.4,229.5 246.4,249 246.4,252.9 250.3,252.9 292,252.9 295.4,252.9 295.4,249 
		295.4,229.5 295.4,225.6 292,225.6 	"/>
	<polygon points="250.3,257.3 246.4,257.3 246.4,260.8 246.4,280.3 246.4,284.2 250.3,284.2 292,284.2 295.4,284.2 295.4,280.3 
		295.4,260.8 295.4,257.3 292,257.3 	"/>
	<polygon points="250.3,288.5 246.4,288.5 246.4,292 246.4,311.9 246.4,315.4 250.3,315.4 292,315.4 295.4,315.4 295.4,311.9 
		295.4,292 295.4,288.5 292,288.5 	"/>
</g>
</svg>
