<?xml version="1.0" encoding="utf-8"?>
<!-- Generator: Adobe Illustrator 17.1.0, SVG Export Plug-In . SVG Version: 6.00 Build 0)  -->
<!DOCTYPE svg PUBLIC "-//W3C//DTD SVG 1.1//EN" "http://www.w3.org/Graphics/SVG/1.1/DTD/svg11.dtd">
<svg version="1.1" xmlns="http://www.w3.org/2000/svg" xmlns:xlink="http://www.w3.org/1999/xlink" x="0px" y="0px"
	 viewBox="0 0 284.7 181.3" enable-background="new 0 0 284.7 181.3" xml:space="preserve">
<g id="ICON">
	<g>
		<polygon fill="#FFFFFF" points="142.5,32.1 110.7,63.9 112.9,66.1 142.5,36.4 172.2,66.1 174.4,63.9 		"/>
		<g>
			<polygon fill="#FFFFFF" points="116.1,67.3 115.3,67.3 115.3,68.1 115.3,72.6 115.3,73.5 116.1,73.5 125.8,73.5 126.6,73.5 
				126.6,72.6 126.6,68.1 126.6,67.3 125.8,67.3 			"/>
			<polygon fill="#FFFFFF" points="168.9,73.5 169.8,73.5 169.8,72.6 169.8,68.1 169.8,67.3 168.9,67.3 159.3,67.3 158.4,67.3 
				158.4,68.1 158.4,72.6 158.4,73.5 159.3,73.5 			"/>
			<polygon fill="#FFFFFF" points="116.1,74.5 115.3,74.5 115.3,75.3 115.3,79.9 115.3,80.7 116.1,80.7 125.8,80.7 126.6,80.7 
				126.6,79.9 126.6,75.3 126.6,74.5 125.8,74.5 			"/>
			<polygon fill="#FFFFFF" points="116.1,81.7 115.3,81.7 115.3,82.6 115.3,87.1 115.3,88 116.1,88 125.8,88 126.6,88 126.6,87.1 
				126.6,82.6 126.6,81.7 125.8,81.7 			"/>
			<polygon fill="#FFFFFF" points="116.1,89 115.3,89 115.3,89.8 115.3,94.3 115.3,95.2 116.1,95.2 125.8,95.2 126.6,95.2 
				126.6,94.3 126.6,89.8 126.6,89 125.8,89 			"/>
			<polygon fill="#FFFFFF" points="145,67.2 144.1,67.2 144.1,68.1 144.1,72.6 144.1,73.5 145,73.5 154.6,73.5 155.5,73.5 
				155.5,72.6 155.5,68.1 155.5,67.2 154.6,67.2 			"/>
			<polygon fill="#FFFFFF" points="145,60 144.1,60 144.1,60.9 144.1,65.4 144.1,66.2 145,66.2 154.6,66.2 155.5,66.2 155.5,65.4 
				155.5,60.9 155.5,60 154.6,60 			"/>
			<polygon fill="#FFFFFF" points="145,74.5 144.1,74.5 144.1,75.3 144.1,79.9 144.1,80.7 145,80.7 154.6,80.7 155.5,80.7 
				155.5,79.9 155.5,75.3 155.5,74.5 154.6,74.5 			"/>
			<polygon fill="#FFFFFF" points="145,81.7 144.1,81.7 144.1,82.6 144.1,87.1 144.1,87.9 145,87.9 154.6,87.9 155.5,87.9 
				155.5,87.1 155.5,82.6 155.5,81.7 154.6,81.7 			"/>
			<polygon fill="#FFFFFF" points="145,89 144.1,89 144.1,89.8 144.1,94.3 144.1,95.2 145,95.2 154.6,95.2 155.5,95.2 155.5,94.3 
				155.5,89.8 155.5,89 154.6,89 			"/>
			<polygon fill="#FFFFFF" points="130.5,74.5 129.6,74.5 129.6,75.3 129.6,79.9 129.6,80.7 130.5,80.7 140.2,80.7 141,80.7 
				141,79.9 141,75.3 141,74.5 140.2,74.5 			"/>
			<polygon fill="#FFFFFF" points="130.5,81.7 129.6,81.7 129.6,82.6 129.6,87.1 129.6,88 130.5,88 140.2,88 141,88 141,87.1 
				141,82.6 141,81.7 140.2,81.7 			"/>
			<polygon fill="#FFFFFF" points="130.5,89 129.6,89 129.6,89.8 129.6,94.3 129.6,95.2 130.5,95.2 140.2,95.2 141,95.2 141,94.3 
				141,89.8 141,89 140.2,89 			"/>
			<polygon fill="#FFFFFF" points="169,74.5 159.3,74.5 158.4,74.5 158.4,75.3 158.4,79.9 158.4,80.7 159.3,80.7 169,80.7 
				169.8,80.7 169.8,79.9 169.8,75.3 169.8,74.5 			"/>
			<polygon fill="#FFFFFF" points="159.3,81.7 158.4,81.7 158.4,82.6 158.4,87.1 158.4,88 159.3,88 169,88 169.8,88 169.8,87.1 
				169.8,82.6 169.8,81.7 169,81.7 			"/>
			<polygon fill="#FFFFFF" points="159.3,89 158.4,89 158.4,89.8 158.4,94.3 158.4,95.2 159.3,95.2 169,95.2 169.8,95.2 169.8,94.3 
				169.8,89.8 169.8,89 169,89 			"/>
		</g>
	</g>
</g>
<g id="TEXT">
	<g>
		<path fill="#FFFFFF" d="M26.8,141.2v-21.5h2.7v2.4c1.2-1.4,2.9-2.8,5-2.8c1.7,0,3.3,1.1,3.8,2.7c1.2-1.3,2.9-2.7,5-2.7
			c2.8,0,4.3,1.9,4.3,5v16.9h-3v-16.5c0-2.2-0.7-2.9-2.2-2.9c-1.8,0-2.9,1.3-3.8,2.2v17.2h-3v-16.5c0-2.2-0.8-2.9-2.4-2.9
			c-1.8,0-2.9,1.3-3.6,2.2v17.2H26.8z"/>
		<path fill="#FFFFFF" d="M51.7,125.5c0.6-3.4,2.6-6.3,6.4-6.3c4,0,6.2,2.3,6.2,6.1v12c0,1.9,0.2,3.3,0.5,3.8h-3.1l-0.4-1.8
			c-1.2,1.2-3.2,2.2-4.6,2.2c-3.3,0-5.6-2.1-5.6-5.5c0-5.3,5.8-8,10.1-8.9v-1.5c0-2.4-1.2-3.8-3.1-3.8c-2.3,0-3.4,2.3-3.7,4.2
			L51.7,125.5z M61.3,129.6c-2.7,0.8-7.2,2.8-7.2,6.2c0,2,0.9,3.3,3.1,3.3c1.6,0,3-1.1,4.1-2.2V129.6z"/>
		<path fill="#FFFFFF" d="M68.5,119.7h3v2.6h0.1c1.8-2.6,3.1-3,5.5-3v2.8c-2.2,0-3.9,0.7-5.5,3.8v15.3h-3V119.7z"/>
		<path fill="#FFFFFF" d="M80.5,111.3h3v18.8h0.1l5.7-10.5h3.1l-4,6.9l5,14.6h-3.1l-3.9-11.7h-0.1l-2.8,5.3v6.4h-3V111.3z"/>
		<path fill="#FFFFFF" d="M97.4,130.9v1.2c0,5.2,1.2,7,4,7c2.3,0,3.2-2.1,3.6-4.1l2.8,0.3c-0.5,3.2-2.9,6.2-6.8,6.2
			c-4.5,0-6.6-3.4-6.6-11.2c0-7.8,2.1-11.2,6.6-11.2c4.5,0,6.6,4.1,6.6,10.3v1.4H97.4z M104.6,128.4c-0.1-4.6-0.9-6.7-3.6-6.7
			c-2.1,0-3.6,1.6-3.6,6.7H104.6z"/>
		<path fill="#FFFFFF" d="M109.4,119.7h2.9v-7.2h3v7.2h4v2.5h-4v15c0,1.2,0.7,2.1,2.1,2.1c0.6,0,1.3-0.2,1.8-0.4v2.2
			c-0.8,0.2-1.6,0.4-2.8,0.4c-2.8,0-4.1-1.3-4.1-4.6v-14.8h-2.9V119.7z"/>
		<path fill="#FFFFFF" d="M122.3,125.4c0.2-4.5,3.1-6.9,7.4-6.9c4.3,0,6.7,2,6.7,6v14.3c0,0.7,0.2,1.6,0.3,2.4h-4.4
			c0-0.6-0.2-1.2-0.2-1.7c-1.7,1.4-3.2,2.1-5.4,2.1c-3.1,0-4.7-2.1-4.7-5c0-4.9,3.2-7.6,9.9-10.1v-1.3c0-1.9-0.7-2.9-2.3-2.9
			c-2.1,0-2.6,1.2-2.6,3.1H122.3z M131.8,129.9c-4.2,2.4-5.2,3.9-5.2,5.9c0,1.4,0.7,2,2.1,2c1.3,0,2.3-1,3.1-2.1V129.9z"/>
		<path fill="#FFFFFF" d="M150.4,141.2v-17.2c0-1.1-0.7-1.6-1.6-1.6c-1,0-1.9,0.6-3,1.4v17.4h-4.6v-22.2h4.4v2.2
			c1.9-1.7,2.9-2.6,5.1-2.6c2.3,0,3.1,0.8,4.1,2.6c2.2-2.1,3.5-2.6,5.2-2.6c2.9,0,4.3,1.8,4.3,4.7v18h-4.6v-17.2
			c0-1.1-0.7-1.6-1.7-1.6c-1,0-1.9,0.6-2.9,1.4v17.4H150.4z"/>
		<path fill="#FFFFFF" d="M173.1,118.9v2.3h0.1c1.5-1.9,2.6-2.7,5-2.7c2.9,0,4.7,2.1,4.7,6.2v10.7c0,4.1-1.8,6.2-4.7,6.2
			c-2,0-3-0.8-4.8-2.3v8.9h-4.6v-29.3H173.1z M173.3,136.6c0.9,0.7,1.7,1.2,2.6,1.2c1.2,0,2.2-0.7,2.2-3.6v-8.3c0-2.9-1-3.6-2.2-3.6
			c-0.9,0-1.7,0.5-2.6,1.2V136.6z"/>
		<path fill="#FFFFFF" d="M187.1,141.2v-29.8h4.6v29.8H187.1z"/>
		<path fill="#FFFFFF" d="M196.3,115.5v-4.2h4.6v4.2H196.3z M196.3,141.2v-22.2h4.6v22.2H196.3z"/>
		<path fill="#FFFFFF" d="M206.3,122.7h-2.7v-3.8h2.7v-2.8c0-3.6,1.9-5.2,5.2-5.2h2.3v3.8h-1.3c-1.1,0-1.5,0.4-1.5,1.5v2.7h2.6v3.8
			H211v18.4h-4.6V122.7z"/>
		<path fill="#FFFFFF" d="M216.9,115.5v-4.2h4.6v4.2H216.9z M216.9,141.2v-22.2h4.6v22.2H216.9z"/>
		<path fill="#FFFFFF" d="M240.2,130.9h-9.8v3.2c0,2.6,0.9,3.6,2.6,3.6s2.6-1.1,2.6-3.6v-0.5h4.6c-0.1,4.7-2,7.9-7.2,7.9
			c-5.3,0-7.2-3.4-7.2-8.3v-6.5c0-4.9,1.9-8.3,7.2-8.3s7.2,3.4,7.2,8.3V130.9z M235.6,127.1v-1.2c0-2.6-0.9-3.6-2.6-3.6
			s-2.6,1.1-2.6,3.6v1.2H235.6z"/>
		<path fill="#FFFFFF" d="M253.9,141.2v-2.3h-0.1c-1.5,1.9-2.6,2.7-5,2.7c-2.9,0-4.7-2.1-4.7-6.2v-10.7c0-4.1,1.8-6.2,4.7-6.2
			c2,0,3,0.8,4.8,2.3v-9.5h4.6v29.8H253.9z M253.7,123.5c-0.9-0.7-1.7-1.2-2.6-1.2c-1.2,0-2.2,0.7-2.2,3.6v8.3c0,2.9,1,3.6,2.2,3.6
			c0.9,0,1.7-0.5,2.6-1.2V123.5z"/>
	</g>
</g>
</svg>
