<?xml version="1.0" standalone="no"?>
<!DOCTYPE svg PUBLIC "-//W3C//DTD SVG 20010904//EN"
 "http://www.w3.org/TR/2001/REC-SVG-20010904/DTD/svg10.dtd">
<svg version="1.0" xmlns="http://www.w3.org/2000/svg"
 width="512.000000pt" height="512.000000pt" viewBox="0 0 512.000000 512.000000"
 preserveAspectRatio="xMidYMid meet">
<metadata>
Created by potrace 1.11, written by Peter Selinger 2001-2013
</metadata>
<g transform="translate(0.000000,512.000000) scale(0.100000,-0.100000)"
fill="#000000" stroke="none">
<path d="M1560 3550 c-530 -538 -966 -982 -967 -987 -2 -5 27 -39 65 -76 l68
-67 904 916 904 915 296 -298 c163 -164 571 -576 906 -915 l611 -616 74 67 74
68 -979 987 c-538 542 -981 986 -985 985 -3 0 -440 -441 -971 -979z"/>
<path d="M2630 2610 l0 -200 350 0 350 0 0 200 0 200 -350 0 -350 0 0 -200z"/>
<path d="M870 2165 l0 -195 350 0 350 0 0 195 0 195 -350 0 -350 0 0 -195z"/>
<path d="M2630 2165 l0 -195 350 0 350 0 0 195 0 195 -350 0 -350 0 0 -195z"/>
<path d="M3500 2165 l0 -195 355 0 355 0 0 195 0 195 -355 0 -355 0 0 -195z"/>
<path d="M870 1720 l0 -200 350 0 350 0 0 200 0 200 -350 0 -350 0 0 -200z"/>
<path d="M1740 1720 l0 -200 355 0 355 0 0 200 0 200 -355 0 -355 0 0 -200z"/>
<path d="M2630 1720 l0 -200 350 0 350 0 0 200 0 200 -350 0 -350 0 0 -200z"/>
<path d="M3500 1720 l0 -200 355 0 355 0 0 200 0 200 -355 0 -355 0 0 -200z"/>
<path d="M870 1270 l0 -200 350 0 350 0 0 200 0 200 -350 0 -350 0 0 -200z"/>
<path d="M1740 1270 l0 -200 355 0 355 0 0 200 0 200 -355 0 -355 0 0 -200z"/>
<path d="M2630 1270 l0 -200 350 0 350 0 0 200 0 200 -350 0 -350 0 0 -200z"/>
<path d="M3500 1270 l0 -200 355 0 355 0 0 200 0 200 -355 0 -355 0 0 -200z"/>
<path d="M870 825 l0 -195 350 0 350 0 0 195 0 195 -350 0 -350 0 0 -195z"/>
<path d="M1740 825 l0 -195 355 0 355 0 0 195 0 195 -355 0 -355 0 0 -195z"/>
<path d="M2630 825 l0 -195 350 0 350 0 0 195 0 195 -350 0 -350 0 0 -195z"/>
<path d="M3500 825 l0 -195 355 0 355 0 0 195 0 195 -355 0 -355 0 0 -195z"/>
</g>
</svg>
